<?xml version="1.0" encoding="UTF-8"?>
<!DOCTYPE svg PUBLIC "-//W3C//DTD SVG 1.1//EN" "http://www.w3.org/Graphics/SVG/1.1/DTD/svg11.dtd">
<!-- Creator: CorelDRAW 2021 (64-Bit) -->
<svg xmlns="http://www.w3.org/2000/svg" xml:space="preserve" width="132.373mm" height="54.9433mm" version="1.1" style="shape-rendering:geometricPrecision; text-rendering:geometricPrecision; image-rendering:optimizeQuality; fill-rule:evenodd; clip-rule:evenodd"
viewBox="0 0 12656.04 5253.06"
 xmlns:xlink="http://www.w3.org/1999/xlink"
 xmlns:xodm="http://www.corel.com/coreldraw/odm/2003">
 <defs>
  <style type="text/css">
   <![CDATA[
    .fil0 {fill:#01043C}
    .fil1 {fill:#01043C;fill-rule:nonzero}
   ]]>
  </style>
 </defs>
 <g id="Layer_x0020_1">
  <metadata id="CorelCorpID_0Corel-Layer"/>
  <path class="fil0" d="M5967.99 2399.59l0 81.88c0,554.3 294.54,1032.46 555.42,1286.97 281.14,274.27 736.75,534.8 1309.3,534.8 871.86,0 1510.64,-580.58 1745.51,-1215.09 208.47,-563.15 14.7,-778.62 270.41,-1210.89 321.29,-543.13 1065.01,-718.17 1600.73,-317.78 137.04,102.42 299.55,283.43 370.53,495.3l-1512.42 2.5 0.06 762.01 2307.63 2.74c31.46,-120.61 40.88,-274.84 40.88,-400.09 0,-1004.66 -842.18,-1846.01 -1846.01,-1846.01 -425.28,0 -848.61,134.25 -1160.08,388.19 -53.74,43.81 -89.15,69.85 -134.27,118.78l-124.24 129.04c-254.08,286.46 -416.55,648.33 -454.84,1061.75 -15.66,169 -1.08,296.94 -48.15,459.94 -152.85,529.24 -654.09,866.98 -1202.35,794.23 -557.5,-73.97 -953.03,-541.91 -953.03,-1105.93 0,-863.43 1011.58,-1392.82 1732.19,-878.22 181.18,129.38 360.31,442.65 399.94,470.41 78.29,-283.94 241.41,-586.94 385.84,-775.01 -576.37,-676.67 -1797.63,-814.54 -2475.13,-335.47 -48.26,34.12 -86.42,63.01 -131.46,99.23 -342.35,275.31 -676.46,796.34 -676.46,1396.73z"/>
  <path class="fil0" d="M9391.23 3415.58c41.89,26.01 272.26,265.6 429.1,356.67 397.85,231.01 828.65,330.73 1307.27,242.98 323.89,-59.37 607.94,-200.85 828.05,-377.44 164.41,-131.9 333.42,-314.12 434.3,-499.94 -68.05,-8.71 -802.82,-1.72 -962.14,-1.91 -100.51,-0.12 -79.14,-4.27 -156.33,33.59 -303.46,148.9 -654.54,143.79 -949.82,4.68 -154.89,-72.98 -228.24,-142.53 -333.88,-246.9 -37.79,-37.34 -211.4,-277.17 -247.19,-312.77 -101.78,554.27 -166.45,454.44 -349.37,801.06z"/>
  <rect class="fil0" transform="matrix(0.184465 -0.148458 0.148458 0.184465 11699.6 451.759)" width="3591.73" height="1690.23" rx="845.11" ry="845.11"/>
  <path class="fil0" d="M3785.42 627.7l3311.06 0c-703.54,237.74 -1220.86,879.55 -1275.99,1649.28l-1245.62 1316.07 1655.46 0c15.91,19.8 32.22,39.28 48.9,58.41 176.15,275.43 422.02,501.91 712.63,654.82l-3199.75 0c-103.78,14.38 -213.01,-16.55 -294.56,-93.74 -142.47,-134.83 -148.7,-361.69 -13.87,-504.14l2240.72 -2367.47 -1938.96 0c-196.14,0 -356.61,-160.46 -356.61,-356.61l0 -0.01c0,-196.14 160.47,-356.61 356.61,-356.61z"/>
  <path class="fil1" d="M3090.83 3270.91c-23.04,22.32 -79.2,75.97 -143.29,155.54 -81,100.81 -182.17,284.42 -186.49,292.34 -211.7,384.51 -189.74,320.79 -233.29,416.55 -56.89,125.29 -123.49,245.9 -181.81,370.46 0,0 -34.56,74.17 -108.74,137.9 -22.32,19.08 -49.68,38.52 -87.48,45.72 -20.16,3.6 -49.69,11.88 -70.92,-3.96 -13.68,-9.72 -20.53,-26.28 -23.04,-50.4 -7.21,-70.21 29.88,-134.29 45.36,-161.29 68.41,-120.61 108.37,-221.06 105.85,-222.5 -2.16,-1.08 -41.76,56.52 -202.69,309.63l-135.01 195.14c-45,64.8 -135.74,82.44 -202.7,38.87 -43.56,-28.43 -66.25,-75.6 -64.44,-122.76l-77.41 111.97c-45,64.8 -135.73,82.44 -202.69,38.88 -66.96,-43.57 -84.97,-131.41 -39.96,-196.58l63.37 -91.44c-44.65,19.44 -83.17,27 -126.73,-1.44 -66.96,-43.56 -69.85,-121.69 -24.85,-186.86l549.41 -745.98c12.24,-16.56 12.24,-39.24 0,-55.8 -12.24,-16.56 -34.2,-24.12 -54.36,-18.37l-211.34 60.85c-76.68,24.12 -159.13,-16.92 -183.97,-91.45 -24.84,-74.52 17.29,-154.08 94.33,-178.21 0,0 486.04,-150.85 647.69,-202.34 84.97,-27 165.25,-63.72 239.41,-109.09 192.61,-117.73 301.35,-271.46 380.55,-396.39 235.46,-370.46 502.23,-938.94 621.05,-1199.97l0 -1009.16c0,-115.56 -97.57,-210.25 -216.74,-210.25l-2842.42 0c-119.17,0 -216.74,94.69 -216.74,210.25l0 2266.73c48.97,-46.08 98.3,-92.17 147.61,-137.52 203.06,-187.57 323.66,-443.19 336.63,-714.66 7.93,-164.9 27.73,-659.21 27.73,-659.21 3.24,-78.12 71.29,-138.97 151.93,-135.73 80.65,3.24 143.29,69.13 140.05,147.25l-3.96 213.49c-0.36,20.53 12.6,38.88 32.76,46.08 19.8,7.2 42.13,1.08 55.44,-15.12l594.41 -712.86c52.57,-59.4 131.05,-77.76 192.25,-26.64 39.96,33.12 42.85,71.29 35.29,118.09l73.8 -83.52c52.57,-59.41 144.73,-66.25 205.94,-15.13 61.2,50.77 68.4,140.41 15.84,199.81l-90.73 102.25c46.81,-14.4 99.73,-5.77 139.33,27.36 61.21,51.12 68.41,140.41 15.84,199.81l-158.05 178.21c46.45,-14.4 86.05,-17.29 125.65,15.84 61.21,51.12 41.04,117.37 -11.52,176.77 -52.57,59.4 -309.62,368.67 -747.78,739.5 -90.01,76.32 -170.3,160.57 -240.86,252.74 -61.93,81 -100.45,147.61 -116.29,175.33 0,0 -118.81,205.94 -922.03,1541.64l0 634.73c0,115.56 97.57,210.25 216.74,210.25l2841.69 0c119.18,0 216.74,-94.69 216.74,-210.25l0 -1847.3c-91.44,91.09 -159.13,157.7 -184.33,182.17z"/>
  <path class="fil1" d="M3448.28 4622.36l38.02 0 0 422.81 142.17 0 0 57.21 -180.19 0 0 -480.02zm221.29 0l204.58 0 0 58.89 -167.54 0 0 145.66 154.95 0 0 55.54 -154.95 0 0 162.73 170.41 0 0 57.21 -207.45 0 0 -480.02zm279.52 0l80.6 408.76 79.7 -408.76 42.58 0 -102.39 480.02 -40.3 0 -102.26 -480.02 42.07 0zm354.06 283.29l-42.58 -212.02 -45.33 212.02 87.91 0zm-62.48 -283.29l42.98 0 101.87 480.02 -41.68 0 -28.43 -143.76 -111.06 0 -30.33 143.76 -39 0 105.65 -480.02zm179.42 0l44.93 0 141.72 388.91 0 -388.91 36.13 0 0 480.02 -42.58 0 -143.87 -388.46 0 388.46 -36.32 0 0 -480.02zm390.32 424.48c12.91,0 23.47,-2.34 31.76,-6.91 14.73,-8.48 26.87,-24.76 36.25,-48.97 7.57,-19.4 12.98,-44.28 16.23,-74.5 1.96,-18.07 2.87,-34.91 2.87,-50.3 0,-59.44 -6.9,-105.62 -20.73,-138.52 -13.76,-32.9 -36.07,-49.41 -66.72,-49.41l-67.51 0 0 368.61 67.83 0zm-106.05 -424.48l113.74 0c38.55,0 68.48,23.42 89.81,70.26 18.98,42.27 28.43,96.36 28.43,162.39 0,50.97 -5.6,97.02 -16.82,138.18 -19.7,72.83 -53.68,109.19 -101.81,109.19l-113.34 0 0 -480.02zm402.06 -13.05c49.51,0 86.22,27.22 110.02,81.64 18.6,42.5 27.92,96.92 27.92,163.06 0,71.71 -10.63,131.27 -31.95,178.78 -24.92,55.77 -60.53,83.65 -106.77,83.65 -43.17,0 -77.15,-24.43 -101.86,-73.17 -22.05,-47.06 -33.07,-106.51 -33.07,-178.44 0,-64.91 9.46,-120.45 28.3,-166.63 24.2,-59.22 60,-88.89 107.42,-88.89zm3.78 448.91c33.53,0 57.72,-20.53 72.72,-61.57 14.93,-41.04 22.44,-88.22 22.44,-141.63 0,-56.44 -8.61,-101.83 -25.89,-136.19 -17.29,-34.46 -40.83,-51.63 -70.76,-51.63 -29.09,0 -52.77,16.95 -71.09,51.07 -18.33,34.13 -27.53,84.32 -27.53,150.78 0,53.21 7.9,98.04 23.61,134.51 15.73,36.47 41.23,54.65 76.5,54.65zm312.98 -110.75c0.92,27.21 4.64,49.41 11.29,66.36 12.58,31.78 34.83,47.74 66.65,47.74 14.28,0 27.26,-3.46 39,-10.49 22.7,-13.49 33.98,-37.7 33.98,-72.49 0,-26.22 -4.76,-44.84 -14.28,-55.88 -9.71,-10.93 -24.84,-20.4 -45.52,-28.43l-38.02 -14.72c-24.85,-9.59 -42.39,-20.18 -52.7,-31.68 -17.86,-20.08 -26.73,-50.08 -26.73,-89.89 0,-43.16 8.67,-78.51 26.15,-106.17 17.49,-27.66 42.13,-41.49 74.15,-41.49 29.42,0 54.39,12.16 75.01,36.47 20.54,24.2 30.84,63.02 30.84,116.43l-35.74 0c-1.89,-25.76 -5.99,-45.39 -12.26,-59.11 -11.55,-25.1 -31.24,-37.58 -59.03,-37.58 -22.43,0 -38.54,8.02 -48.32,24.2 -9.86,16.06 -14.74,34.79 -14.74,56.09 0,23.54 5.74,40.82 17.22,51.64 7.51,7.03 24.52,15.73 51,26.22l39.39 15.28c18.98,7.47 33.59,17.62 43.95,30.44 17.81,22.42 26.74,54.98 26.74,97.7 0,53.09 -11.35,91.12 -33.91,113.98 -22.63,22.86 -48.91,34.35 -78.85,34.35 -34.89,0 -62.21,-15.28 -81.97,-45.73 -19.7,-30.34 -29.41,-71.38 -29.02,-123.24l35.73 0zm380.22 -41.82l-42.58 -212.02 -45.32 212.02 87.9 0zm-62.47 -283.29l42.98 0 101.86 480.02 -41.67 0 -28.43 -143.76 -111.06 0 -30.34 143.76 -38.99 0 105.65 -480.02zm220.69 0l0 296.66c0,34.92 3.79,63.91 11.47,86.99 11.28,34.8 30.39,52.2 57.33,52.2 32.22,0 54.13,-18.74 65.67,-56.44 6.26,-20.52 9.39,-48.07 9.39,-82.76l0 -296.66 38.62 0 0 269.57c0,59.11 -4.7,104.5 -13.96,136.29 -17.09,57.88 -49.31,86.88 -96.72,86.88 -47.35,0 -79.5,-29 -96.45,-86.88 -9.33,-31.79 -13.96,-77.18 -13.96,-136.29l0 -269.57 38.61 0zm115.04 -132.27l-51.06 94.36 -26.35 0 34.95 -94.36 42.45 0zm234 556.76c12.92,0 23.47,-2.34 31.76,-6.91 14.73,-8.48 26.87,-24.76 36.26,-48.97 7.56,-19.4 12.97,-44.28 16.23,-74.5 1.96,-18.07 2.87,-34.91 2.87,-50.3 0,-59.44 -6.91,-105.62 -20.74,-138.52 -13.76,-32.9 -36.06,-49.41 -66.72,-49.41l-67.5 0 0 368.61 67.82 0zm-106.04 -424.48l113.74 0c38.54,0 68.47,23.42 89.81,70.26 18.98,42.27 28.43,96.36 28.43,162.39 0,50.97 -5.61,97.02 -16.83,138.18 -19.7,72.83 -53.67,109.19 -101.8,109.19l-113.34 0 0 -480.02zm284.54 0l204.58 0 0 58.89 -167.54 0 0 145.66 154.95 0 0 55.54 -154.95 0 0 162.73 170.41 0 0 57.21 -207.45 0 0 -480.02zm369.71 0l126.26 0c24.98,0 45.13,12.05 60.4,36.14 15.26,24.08 22.96,57.88 22.96,101.49 0,37.47 -6.86,70.04 -20.48,97.81 -13.63,27.77 -34.56,41.71 -62.87,41.71l-88.24 0 0 202.87 -38.02 0 0 -480.02zm171.2 137.96c0,-35.36 -7.63,-59.33 -22.96,-71.94 -8.41,-6.81 -19.95,-10.15 -34.56,-10.15l-75.66 0 0 166.29 75.66 0c17.09,0 30.91,-6.13 41.54,-18.62 10.63,-12.38 15.98,-34.24 15.98,-65.58zm201.39 145.33l-42.58 -212.02 -45.33 212.02 87.91 0zm-62.48 -283.29l42.98 0 101.87 480.02 -41.68 0 -28.43 -143.76 -111.06 0 -30.33 143.76 -39 0 105.65 -480.02zm309.92 219.94c17.8,0 31.95,-6.14 42.33,-18.29 10.36,-12.16 15.58,-34.24 15.58,-66.03 0,-34.24 -7.3,-57.55 -21.78,-69.93 -7.76,-6.47 -18.19,-9.82 -31.17,-9.82l-92.87 0 0 164.06 87.91 0zm-125.94 -219.94l129.98 0c21.39,0 39,5.35 52.89,16.06 26.34,20.41 39.58,58.22 39.58,113.32 0,28.77 -3.52,52.31 -10.43,70.6 -6.98,18.29 -16.69,33.01 -29.15,44.16 10.95,7.58 19.24,17.62 24.71,30 5.55,12.5 8.67,32.56 9.33,60.45l1.3 64.34c0.39,18.3 1.3,32.01 2.67,40.94 2.29,15.16 6.4,24.98 12.27,29.32l0 10.82 -46.63 0c-1.3,-4.13 -2.29,-9.48 -3.07,-16.06 -0.78,-6.46 -1.43,-19.07 -1.89,-37.8l-2.34 -80.08c-0.85,-31.34 -7.7,-52.41 -20.41,-63.12 -7.25,-5.8 -18.65,-8.82 -34.17,-8.82l-86.61 0 0 205.88 -38.02 0 0 -480.02zm422.08 283.29l-42.58 -212.02 -45.33 212.02 87.91 0zm-62.48 -283.29l42.98 0 101.87 480.02 -41.68 0 -28.43 -143.76 -111.06 0 -30.33 143.76 -39 0 105.65 -480.02zm270.39 0l126.26 0c24.98,0 45.13,12.05 60.4,36.14 15.26,24.08 22.96,57.88 22.96,101.49 0,37.47 -6.86,70.04 -20.48,97.81 -13.63,27.77 -34.56,41.71 -62.87,41.71l-88.24 0 0 202.87 -38.02 0 0 -480.02zm171.2 137.96c0,-35.36 -7.63,-59.33 -22.96,-71.94 -8.41,-6.81 -19.95,-10.15 -34.56,-10.15l-75.66 0 0 166.29 75.66 0c17.09,0 30.91,-6.13 41.54,-18.62 10.63,-12.38 15.98,-34.24 15.98,-65.58zm207.33 -151.01c49.5,0 86.21,27.22 110.02,81.64 18.59,42.5 27.92,96.92 27.92,163.06 0,71.71 -10.63,131.27 -31.96,178.78 -24.91,55.77 -60.52,83.65 -106.76,83.65 -43.18,0 -77.16,-24.43 -101.87,-73.17 -22.05,-47.06 -33.06,-106.51 -33.06,-178.44 0,-64.91 9.46,-120.45 28.3,-166.63 24.2,-59.22 60,-88.89 107.42,-88.89zm3.78 448.91c33.52,0 57.72,-20.53 72.72,-61.57 14.93,-41.04 22.44,-88.22 22.44,-141.63 0,-56.44 -8.61,-101.83 -25.89,-136.19 -17.29,-34.46 -40.83,-51.63 -70.77,-51.63 -29.08,0 -52.76,16.95 -71.09,51.07 -18.33,34.13 -27.52,84.32 -27.52,150.78 0,53.21 7.89,98.04 23.61,134.51 15.72,36.47 41.22,54.65 76.5,54.65zm183.06 -435.86l126.26 0c24.98,0 45.13,12.05 60.4,36.14 15.26,24.08 22.96,57.88 22.96,101.49 0,37.47 -6.86,70.04 -20.48,97.81 -13.63,27.77 -34.56,41.71 -62.87,41.71l-88.24 0 0 202.87 -38.02 0 0 -480.02zm171.2 137.96c0,-35.36 -7.63,-59.33 -22.96,-71.94 -8.41,-6.81 -19.95,-10.15 -34.56,-10.15l-75.66 0 0 166.29 75.66 0c17.09,0 30.91,-6.13 41.54,-18.62 10.63,-12.38 15.98,-34.24 15.98,-65.58zm127.44 -137.96l0 296.66c0,34.92 3.79,63.91 11.47,86.99 11.28,34.8 30.39,52.2 57.33,52.2 32.22,0 54.13,-18.74 65.67,-56.44 6.26,-20.52 9.39,-48.07 9.39,-82.76l0 -296.66 38.62 0 0 269.57c0,59.11 -4.7,104.5 -13.96,136.29 -17.09,57.88 -49.31,86.88 -96.72,86.88 -47.35,0 -79.5,-29 -96.45,-86.88 -9.33,-31.79 -13.96,-77.18 -13.96,-136.29l0 -269.57 38.61 0zm241.3 0l38.02 0 0 422.81 142.17 0 0 57.21 -180.19 0 0 -480.02zm361.7 283.29l-42.58 -212.02 -45.33 212.02 87.91 0zm-62.48 -283.29l42.98 0 101.87 480.02 -41.68 0 -28.43 -143.76 -111.06 0 -30.33 143.76 -39 0 105.65 -480.02zm297.73 -13.05c35.47,0 63.06,16.06 82.69,48.07 19.63,32.01 30.52,68.37 32.67,109.08l-37.05 0c-4.24,-30.9 -12.58,-55.43 -25.16,-73.5 -12.52,-18.07 -30.14,-27.1 -52.83,-27.1 -27.58,0 -49.96,16.62 -66.91,49.85 -17.02,33.23 -25.57,84.09 -25.57,152.68 0,56.22 7.7,101.83 23.02,136.74 15.38,35.02 38.28,52.53 68.74,52.53 27.98,0 49.3,-18.4 63.97,-55.32 7.76,-19.29 13.57,-44.83 17.41,-76.39l37.05 0c-3.33,50.52 -14.28,92.9 -32.87,127.14 -22.31,41.15 -51,61.68 -86.15,61.68l-12.59 29.44c3.65,-2.01 8.41,-2.9 14.28,-2.9 8.94,0 16.31,4.35 22.1,13.17 5.75,8.81 8.68,21.41 8.68,37.8 0,16.51 -3.84,30.79 -11.47,42.72 -7.64,12.05 -19.38,18.07 -35.16,18.07 -6.72,0 -13.76,-1.67 -21.01,-4.91 -4.11,-1.78 -9.59,-4.79 -16.44,-9.14l6.65 -26.54c4.9,3.12 8.6,5.24 11.28,6.58 5.22,2.34 9.98,3.57 14.16,3.57 4.69,0 8.81,-1.22 12.26,-3.57 6.59,-4.58 9.91,-12.83 9.91,-24.88 0,-6.91 -1.69,-12.94 -5.09,-18.06 -3.33,-5.13 -7.83,-7.7 -13.44,-7.7 -2.8,0 -5.34,0.44 -7.56,1.22 -2.22,0.89 -4.89,2.34 -7.95,4.35l-6.65 -13.49 19.5 -45.73c-22.31,0 -44.61,-15.06 -66.92,-45.4 -29.67,-48.18 -44.48,-118.77 -44.48,-212.01 0,-70.83 10.96,-128.93 32.87,-174.21 23.67,-49.19 56.35,-73.84 98.03,-73.84zm285.45 0c49.5,0 86.21,27.22 110.02,81.64 18.59,42.5 27.92,96.92 27.92,163.06 0,71.71 -10.63,131.27 -31.96,178.78 -24.91,55.77 -60.52,83.65 -106.76,83.65 -43.18,0 -77.16,-24.43 -101.87,-73.17 -22.05,-47.06 -33.06,-106.51 -33.06,-178.44 0,-64.91 9.46,-120.45 28.3,-166.63 24.2,-59.22 60,-88.89 107.42,-88.89zm3.78 448.91c33.52,0 57.72,-20.53 72.72,-61.57 14.93,-41.04 22.44,-88.22 22.44,-141.63 0,-56.44 -8.61,-101.83 -25.89,-136.19 -17.29,-34.46 -40.83,-51.63 -70.77,-51.63 -29.08,0 -52.76,16.95 -71.09,51.07 -18.33,34.13 -27.52,84.32 -27.52,150.78 0,53.21 7.89,98.04 23.61,134.51 15.72,36.47 41.22,54.65 76.5,54.65zm9.91 -548.84c3.59,2.57 6.85,4.68 9.78,6.14 2.94,1.56 5.94,2.34 9.01,2.34 7.1,0 12.2,-3.8 15.26,-11.49 1.63,-4.12 2.8,-10.37 3.45,-18.62l20.02 0c-2.67,27.66 -7.75,46.73 -15.38,57.21 -7.57,10.49 -15.85,15.73 -24.92,15.73 -2.8,0 -6.39,-0.89 -10.7,-2.68 -4.3,-1.78 -8.15,-3.68 -11.47,-5.91l-10.11 -6.14c-6,-3.67 -10.9,-6.46 -14.61,-8.36 -3.79,-1.9 -7.44,-2.79 -11.03,-2.79 -4.43,0 -8.08,2.56 -10.95,7.58 -2.88,4.9 -4.83,12.6 -5.8,22.87l-18.79 0c1.69,-17.3 4.44,-31.34 8.22,-42.16 7.29,-20.08 18.06,-30.11 32.34,-30.11 4.3,0 9.13,1.11 14.42,3.23 5.28,2.23 12.38,6.58 21.25,13.16zm173.15 112.98l204.59 0 0 58.89 -167.54 0 0 145.66 154.95 0 0 55.54 -154.95 0 0 162.73 170.41 0 0 57.21 -207.46 0 0 -480.02zm282.2 325.11c0.92,27.21 4.63,49.41 11.28,66.36 12.59,31.78 34.83,47.74 66.65,47.74 14.28,0 27.26,-3.46 39,-10.49 22.7,-13.49 33.98,-37.7 33.98,-72.49 0,-26.22 -4.76,-44.84 -14.28,-55.88 -9.71,-10.93 -24.84,-20.4 -45.52,-28.43l-38.02 -14.72c-24.85,-9.59 -42.39,-20.18 -52.69,-31.68 -17.87,-20.08 -26.74,-50.08 -26.74,-89.89 0,-43.16 8.67,-78.51 26.15,-106.17 17.49,-27.66 42.13,-41.49 74.15,-41.49 29.42,0 54.39,12.16 75.01,36.47 20.54,24.2 30.84,63.02 30.84,116.43l-35.74 0c-1.89,-25.76 -5.99,-45.39 -12.26,-59.11 -11.55,-25.1 -31.24,-37.58 -59.02,-37.58 -22.44,0 -38.55,8.02 -48.33,24.2 -9.85,16.06 -14.73,34.79 -14.73,56.09 0,23.54 5.73,40.82 17.21,51.64 7.51,7.03 24.52,15.73 51,26.22l39.39 15.28c18.98,7.47 33.59,17.62 43.96,30.44 17.8,22.42 26.73,54.98 26.73,97.7 0,53.09 -11.35,91.12 -33.91,113.98 -22.63,22.86 -48.91,34.35 -78.84,34.35 -34.9,0 -62.22,-15.28 -81.98,-45.73 -19.7,-30.34 -29.41,-71.38 -29.02,-123.24l35.74 0zm475.37 -105.17c17.8,0 31.95,-6.14 42.33,-18.29 10.36,-12.16 15.58,-34.24 15.58,-66.03 0,-34.24 -7.3,-57.55 -21.78,-69.93 -7.76,-6.47 -18.19,-9.82 -31.17,-9.82l-92.87 0 0 164.06 87.91 0zm-125.94 -219.94l129.98 0c21.39,0 39,5.35 52.89,16.06 26.34,20.41 39.58,58.22 39.58,113.32 0,28.77 -3.52,52.31 -10.43,70.6 -6.98,18.29 -16.69,33.01 -29.15,44.16 10.96,7.58 19.24,17.62 24.71,30 5.55,12.5 8.67,32.56 9.33,60.45l1.3 64.34c0.39,18.3 1.3,32.01 2.67,40.94 2.29,15.16 6.4,24.98 12.27,29.32l0 10.82 -46.63 0c-1.3,-4.13 -2.29,-9.48 -3.07,-16.06 -0.77,-6.46 -1.43,-19.07 -1.89,-37.8l-2.34 -80.08c-0.85,-31.34 -7.7,-52.41 -20.41,-63.12 -7.25,-5.8 -18.65,-8.82 -34.17,-8.82l-86.61 0 0 205.88 -38.02 0 0 -480.02zm281.67 0l204.58 0 0 58.89 -167.54 0 0 145.66 154.95 0 0 55.54 -154.95 0 0 162.73 170.41 0 0 57.21 -207.45 0 0 -480.02zm256.37 0l54.46 0 80.67 405.86 80.01 -405.86 53.88 0 0 480.02 -36.06 0 0 -283.29c0,-9.81 0.12,-25.99 0.39,-48.73 0.19,-22.64 0.33,-46.85 0.33,-72.83l-80.02 404.86 -37.63 0 -80.67 -404.86 0 14.72c0,11.71 0.19,29.67 0.52,53.76 0.33,24.09 0.46,41.71 0.46,53.08l0 283.29 -36.33 0 0 -480.02zm448.11 -13.05c49.51,0 86.22,27.22 110.03,81.64 18.59,42.5 27.91,96.92 27.91,163.06 0,71.71 -10.63,131.27 -31.95,178.78 -24.92,55.77 -60.53,83.65 -106.77,83.65 -43.17,0 -77.15,-24.43 -101.86,-73.17 -22.05,-47.06 -33.07,-106.51 -33.07,-178.44 0,-64.91 9.46,-120.45 28.31,-166.63 24.19,-59.22 59.99,-88.89 107.41,-88.89zm3.79 448.91c33.52,0 57.72,-20.53 72.72,-61.57 14.92,-41.04 22.43,-88.22 22.43,-141.63 0,-56.44 -8.6,-101.83 -25.89,-136.19 -17.28,-34.46 -40.82,-51.63 -70.76,-51.63 -29.09,0 -52.76,16.95 -71.09,51.07 -18.33,34.13 -27.53,84.32 -27.53,150.78 0,53.21 7.9,98.04 23.61,134.51 15.73,36.47 41.23,54.65 76.51,54.65zm383.67 -435.86l0 57.21 -94.57 0 0 422.81 -38.61 0 0 -422.81 -94.56 0 0 -57.21 227.73 0zm150 283.29l-42.58 -212.02 -45.33 212.02 87.91 0zm-62.48 -283.29l42.98 0 101.87 480.02 -41.68 0 -28.43 -143.76 -111.06 0 -30.33 143.76 -39 0 105.65 -480.02zm204.26 325.11c0.92,27.21 4.64,49.41 11.28,66.36 12.59,31.78 34.83,47.74 66.66,47.74 14.28,0 27.26,-3.46 39,-10.49 22.7,-13.49 33.98,-37.7 33.98,-72.49 0,-26.22 -4.76,-44.84 -14.28,-55.88 -9.71,-10.93 -24.85,-20.4 -45.52,-28.43l-38.02 -14.72c-24.85,-9.59 -42.39,-20.18 -52.7,-31.68 -17.87,-20.08 -26.73,-50.08 -26.73,-89.89 0,-43.16 8.67,-78.51 26.15,-106.17 17.48,-27.66 42.13,-41.49 74.15,-41.49 29.41,0 54.38,12.16 75,36.47 20.55,24.2 30.84,63.02 30.84,116.43l-35.73 0c-1.9,-25.76 -6,-45.39 -12.27,-59.11 -11.54,-25.1 -31.24,-37.58 -59.02,-37.58 -22.44,0 -38.54,8.02 -48.33,24.2 -9.85,16.06 -14.73,34.79 -14.73,56.09 0,23.54 5.74,40.82 17.21,51.64 7.51,7.03 24.52,15.73 51.01,26.22l39.39 15.28c18.98,7.47 33.59,17.62 43.95,30.44 17.8,22.42 26.74,54.98 26.74,97.7 0,53.09 -11.35,91.12 -33.91,113.98 -22.63,22.86 -48.91,34.35 -78.85,34.35 -34.89,0 -62.22,-15.28 -81.97,-45.73 -19.7,-30.34 -29.42,-71.38 -29.03,-123.24l35.74 0z"/>
 </g>
</svg>
